<?xml version="1.0" encoding="iso-8859-1"?>
<!-- Uploaded to: SVG Repo, www.svgrepo.com, Generator: SVG Repo Mixer Tools -->
<!DOCTYPE svg PUBLIC "-//W3C//DTD SVG 1.1//EN" "http://www.w3.org/Graphics/SVG/1.1/DTD/svg11.dtd">
<svg fill="#000000" version="1.1" id="Capa_1" xmlns="http://www.w3.org/2000/svg" xmlns:xlink="http://www.w3.org/1999/xlink" 
	 width="800px" height="800px" viewBox="0 0 31.945 31.944"
	 xml:space="preserve">
<g>
	<g>
		<polygon points="30.103,8.836 30.712,8.241 19.166,11.978 18.271,14.642 		"/>
		<path d="M14.952,12.977l-7.362,0.272c-0.068-0.091-0.141-0.179-0.22-0.261c-1.028-1.069-2.828-1.214-4.279-0.347
			c-0.806,0.481-1.404,1.206-1.686,2.041c-0.291,0.861-0.211,1.736,0.224,2.462c0.107,0.181,0.235,0.348,0.38,0.498l0,0
			c0.787,0.817,2.025,1.094,3.213,0.789c0.034,0.065,0.075,0.129,0.129,0.185c0.304,0.315,0.806,0.325,1.122,0.022
			c0.247-0.238,0.304-0.597,0.173-0.893c0.625-0.469,1.09-1.094,1.328-1.799c0.163-0.48,0.205-0.964,0.139-1.425l5.942,0.189
			L14.952,12.977z M7.072,15.645c-0.209,0.621-0.661,1.164-1.273,1.529c-1.075,0.643-2.381,0.562-3.106-0.189
			c-0.095-0.1-0.179-0.209-0.249-0.325c-0.29-0.484-0.339-1.078-0.139-1.671c0.209-0.621,0.661-1.164,1.272-1.53
			c1.075-0.643,2.382-0.563,3.106,0.19c0.095,0.099,0.179,0.209,0.249,0.326C7.224,14.458,7.272,15.052,7.072,15.645z"/>
		<path d="M16.431,31.825c0.05-0.205-0.793-2.497,0.023-3.378c0.346-0.27,0.652-0.602,0.9-0.983c0.922-1.418,0.846-3.222-0.182-4.29
			c-0.028-0.029-0.06-0.054-0.089-0.083l0.502-8.346L22.534,0l-0.76,0.977l-7,13.546l1.168,1.269l-0.444,6.553
			c-0.407-0.048-0.833-0.012-1.26,0.113c-0.845,0.25-1.592,0.819-2.104,1.606c-0.922,1.418-0.846,3.222,0.182,4.291
			c0.145,0.148,0.308,0.283,0.483,0.396c0.395,0.258,0.84,0.402,1.307,0.439c1.149,0.514,1.223,2.106,1.361,2.434
			C15.607,31.956,16.377,32.041,16.431,31.825z M16.019,14.542c-0.19-0.199-0.184-0.514,0.014-0.705
			c0.198-0.189,0.513-0.184,0.704,0.015c0.19,0.197,0.184,0.513-0.014,0.703C16.524,14.746,16.209,14.74,16.019,14.542z
			 M14.982,28.157c-0.601,0.178-1.192,0.104-1.665-0.202c-0.115-0.075-0.221-0.162-0.316-0.262c-0.725-0.752-0.754-2.062-0.071-3.11
			c0.388-0.599,0.948-1.028,1.577-1.214c0.601-0.178,1.191-0.105,1.664,0.201c0.115,0.076,0.221,0.164,0.316,0.264
			c0.725,0.752,0.753,2.061,0.071,3.111C16.169,27.541,15.609,27.973,14.982,28.157z"/>
	</g>
</g>
</svg>